<mxfile host="app.diagrams.net" agent="Mozilla/5.0 (Windows NT 10.0; Win64; x64) AppleWebKit/537.36 (KHTML, like Gecko) Chrome/134.0.0.0 Safari/537.36" version="26.1.3">
  <diagram name="Page-1" id="P24K-qhNfImgQtz_AjTO">
    <mxGraphModel dx="3374" dy="772" grid="1" gridSize="10" guides="1" tooltips="1" connect="1" arrows="1" fold="1" page="1" pageScale="1" pageWidth="850" pageHeight="1100" math="0" shadow="0">
      <root>
        <mxCell id="0" />
        <mxCell id="1" parent="0" />
        <mxCell id="o1OYObT5BuMIY8ksVBpy-1" value="clk" style="text;html=1;align=center;verticalAlign=middle;resizable=0;points=[];autosize=1;strokeColor=none;fillColor=none;" parent="1" vertex="1">
          <mxGeometry x="-950" y="1926.5" width="40" height="30" as="geometry" />
        </mxCell>
        <mxCell id="o1OYObT5BuMIY8ksVBpy-2" value="~n_rst" style="text;html=1;align=center;verticalAlign=middle;resizable=0;points=[];autosize=1;strokeColor=none;fillColor=none;" parent="1" vertex="1">
          <mxGeometry x="-875" y="2080" width="60" height="30" as="geometry" />
        </mxCell>
        <mxCell id="o1OYObT5BuMIY8ksVBpy-3" value="&lt;div&gt;APB Subordinate Interface&lt;/div&gt;" style="rounded=0;whiteSpace=wrap;html=1;align=center;verticalAlign=top;" parent="1" vertex="1">
          <mxGeometry x="-905" y="1170" width="425" height="830" as="geometry" />
        </mxCell>
        <mxCell id="o1OYObT5BuMIY8ksVBpy-4" value="" style="triangle;whiteSpace=wrap;html=1;" parent="1" vertex="1">
          <mxGeometry x="-905" y="1910" width="50" height="63" as="geometry" />
        </mxCell>
        <mxCell id="o1OYObT5BuMIY8ksVBpy-5" style="edgeStyle=orthogonalEdgeStyle;rounded=0;orthogonalLoop=1;jettySize=auto;html=1;entryX=0.143;entryY=1.001;entryDx=0;entryDy=0;entryPerimeter=0;" parent="1" source="o1OYObT5BuMIY8ksVBpy-2" target="o1OYObT5BuMIY8ksVBpy-3" edge="1">
          <mxGeometry relative="1" as="geometry" />
        </mxCell>
        <mxCell id="o1OYObT5BuMIY8ksVBpy-6" value="Status Register (0x0)" style="rounded=0;whiteSpace=wrap;html=1;" parent="1" vertex="1">
          <mxGeometry x="-862.5" y="1230" width="340" height="60" as="geometry" />
        </mxCell>
        <mxCell id="o1OYObT5BuMIY8ksVBpy-7" value="Result Register (0x2)" style="rounded=0;whiteSpace=wrap;html=1;" parent="1" vertex="1">
          <mxGeometry x="-862.5" y="1320" width="340" height="60" as="geometry" />
        </mxCell>
        <mxCell id="o1OYObT5BuMIY8ksVBpy-8" style="edgeStyle=orthogonalEdgeStyle;rounded=0;orthogonalLoop=1;jettySize=auto;html=1;" parent="1" source="o1OYObT5BuMIY8ksVBpy-9" target="o1OYObT5BuMIY8ksVBpy-32" edge="1">
          <mxGeometry relative="1" as="geometry" />
        </mxCell>
        <mxCell id="o1OYObT5BuMIY8ksVBpy-9" value="New Sample Register (0x4)" style="rounded=0;whiteSpace=wrap;html=1;" parent="1" vertex="1">
          <mxGeometry x="-862.5" y="1420" width="340" height="60" as="geometry" />
        </mxCell>
        <mxCell id="o1OYObT5BuMIY8ksVBpy-10" style="edgeStyle=orthogonalEdgeStyle;rounded=0;orthogonalLoop=1;jettySize=auto;html=1;" parent="1" source="o1OYObT5BuMIY8ksVBpy-11" target="o1OYObT5BuMIY8ksVBpy-33" edge="1">
          <mxGeometry relative="1" as="geometry" />
        </mxCell>
        <mxCell id="o1OYObT5BuMIY8ksVBpy-11" value="F0 Coefficient Register (0x6)" style="rounded=0;whiteSpace=wrap;html=1;" parent="1" vertex="1">
          <mxGeometry x="-862.5" y="1510" width="340" height="60" as="geometry" />
        </mxCell>
        <mxCell id="o1OYObT5BuMIY8ksVBpy-13" style="edgeStyle=orthogonalEdgeStyle;rounded=0;orthogonalLoop=1;jettySize=auto;html=1;entryX=0;entryY=0.5;entryDx=0;entryDy=0;" parent="1" source="o1OYObT5BuMIY8ksVBpy-14" target="o1OYObT5BuMIY8ksVBpy-6" edge="1">
          <mxGeometry relative="1" as="geometry" />
        </mxCell>
        <mxCell id="o1OYObT5BuMIY8ksVBpy-14" value="err" style="text;html=1;align=center;verticalAlign=middle;resizable=0;points=[];autosize=1;strokeColor=none;fillColor=none;" parent="1" vertex="1">
          <mxGeometry x="-1100" y="1230" width="40" height="30" as="geometry" />
        </mxCell>
        <mxCell id="o1OYObT5BuMIY8ksVBpy-15" value="sample_data[15:0]" style="text;html=1;align=center;verticalAlign=middle;resizable=0;points=[];autosize=1;strokeColor=none;fillColor=none;" parent="1" vertex="1">
          <mxGeometry x="-1130" y="1580" width="120" height="30" as="geometry" />
        </mxCell>
        <mxCell id="o1OYObT5BuMIY8ksVBpy-18" style="edgeStyle=orthogonalEdgeStyle;rounded=0;orthogonalLoop=1;jettySize=auto;html=1;entryX=0;entryY=0.5;entryDx=0;entryDy=0;" parent="1" source="JW7BccXnfLLCZpJVobOL-10" target="o1OYObT5BuMIY8ksVBpy-7" edge="1">
          <mxGeometry relative="1" as="geometry">
            <mxPoint x="-1020" y="1365" as="sourcePoint" />
            <mxPoint x="-940" y="1350" as="targetPoint" />
            <Array as="points" />
          </mxGeometry>
        </mxCell>
        <mxCell id="o1OYObT5BuMIY8ksVBpy-20" value="hsel" style="text;html=1;align=center;verticalAlign=middle;resizable=0;points=[];autosize=1;strokeColor=none;fillColor=none;" parent="1" vertex="1">
          <mxGeometry x="-840" y="1060" width="50" height="30" as="geometry" />
        </mxCell>
        <mxCell id="o1OYObT5BuMIY8ksVBpy-21" value="haddr[3:0]" style="text;html=1;align=center;verticalAlign=middle;resizable=0;points=[];autosize=1;strokeColor=none;fillColor=none;" parent="1" vertex="1">
          <mxGeometry x="-588" y="1060" width="80" height="30" as="geometry" />
        </mxCell>
        <mxCell id="o1OYObT5BuMIY8ksVBpy-22" style="edgeStyle=orthogonalEdgeStyle;rounded=0;orthogonalLoop=1;jettySize=auto;html=1;" parent="1" source="o1OYObT5BuMIY8ksVBpy-23" target="o1OYObT5BuMIY8ksVBpy-3" edge="1">
          <mxGeometry relative="1" as="geometry">
            <Array as="points">
              <mxPoint x="-735" y="1150" />
              <mxPoint x="-735" y="1150" />
            </Array>
          </mxGeometry>
        </mxCell>
        <mxCell id="o1OYObT5BuMIY8ksVBpy-23" value="henable" style="text;html=1;align=center;verticalAlign=middle;resizable=0;points=[];autosize=1;strokeColor=none;fillColor=none;" parent="1" vertex="1">
          <mxGeometry x="-770" y="1060" width="70" height="30" as="geometry" />
        </mxCell>
        <mxCell id="o1OYObT5BuMIY8ksVBpy-24" style="edgeStyle=orthogonalEdgeStyle;rounded=0;orthogonalLoop=1;jettySize=auto;html=1;" parent="1" source="o1OYObT5BuMIY8ksVBpy-25" target="o1OYObT5BuMIY8ksVBpy-3" edge="1">
          <mxGeometry relative="1" as="geometry">
            <Array as="points">
              <mxPoint x="-650" y="1160" />
              <mxPoint x="-650" y="1160" />
            </Array>
          </mxGeometry>
        </mxCell>
        <mxCell id="o1OYObT5BuMIY8ksVBpy-25" value="hwrite" style="text;html=1;align=center;verticalAlign=middle;resizable=0;points=[];autosize=1;strokeColor=none;fillColor=none;" parent="1" vertex="1">
          <mxGeometry x="-680" y="1060" width="60" height="30" as="geometry" />
        </mxCell>
        <mxCell id="JW7BccXnfLLCZpJVobOL-17" style="edgeStyle=orthogonalEdgeStyle;rounded=0;orthogonalLoop=1;jettySize=auto;html=1;entryX=-0.007;entryY=0.375;entryDx=0;entryDy=0;entryPerimeter=0;" edge="1" parent="1" source="o1OYObT5BuMIY8ksVBpy-28" target="o1OYObT5BuMIY8ksVBpy-3">
          <mxGeometry relative="1" as="geometry" />
        </mxCell>
        <mxCell id="o1OYObT5BuMIY8ksVBpy-28" value="pwdata[15:0]" style="text;html=1;align=center;verticalAlign=middle;resizable=0;points=[];autosize=1;strokeColor=none;fillColor=none;" parent="1" vertex="1">
          <mxGeometry x="-1100" y="1466" width="90" height="30" as="geometry" />
        </mxCell>
        <mxCell id="o1OYObT5BuMIY8ksVBpy-29" value="prdata[15:0]" style="text;html=1;align=center;verticalAlign=middle;resizable=0;points=[];autosize=1;strokeColor=none;fillColor=none;" parent="1" vertex="1">
          <mxGeometry x="-410" y="1335" width="90" height="30" as="geometry" />
        </mxCell>
        <mxCell id="o1OYObT5BuMIY8ksVBpy-30" value="hresp" style="text;html=1;align=center;verticalAlign=middle;resizable=0;points=[];autosize=1;strokeColor=none;fillColor=none;" parent="1" vertex="1">
          <mxGeometry x="-375" y="1889" width="50" height="30" as="geometry" />
        </mxCell>
        <mxCell id="o1OYObT5BuMIY8ksVBpy-31" value="data_ready" style="text;html=1;align=center;verticalAlign=middle;resizable=0;points=[];autosize=1;strokeColor=none;fillColor=none;" parent="1" vertex="1">
          <mxGeometry x="-390" y="1250" width="80" height="30" as="geometry" />
        </mxCell>
        <mxCell id="o1OYObT5BuMIY8ksVBpy-32" value="bit_period[13:0]" style="text;html=1;align=center;verticalAlign=middle;resizable=0;points=[];autosize=1;strokeColor=none;fillColor=none;" parent="1" vertex="1">
          <mxGeometry x="-430" y="1435" width="110" height="30" as="geometry" />
        </mxCell>
        <mxCell id="o1OYObT5BuMIY8ksVBpy-33" value="fir_coefficients[15:0]" style="text;html=1;align=center;verticalAlign=middle;resizable=0;points=[];autosize=1;strokeColor=none;fillColor=none;" parent="1" vertex="1">
          <mxGeometry x="-370" y="1605" width="130" height="30" as="geometry" />
        </mxCell>
        <mxCell id="o1OYObT5BuMIY8ksVBpy-34" style="edgeStyle=orthogonalEdgeStyle;rounded=0;orthogonalLoop=1;jettySize=auto;html=1;entryX=0.842;entryY=0;entryDx=0;entryDy=0;entryPerimeter=0;" parent="1" source="o1OYObT5BuMIY8ksVBpy-21" target="o1OYObT5BuMIY8ksVBpy-3" edge="1">
          <mxGeometry relative="1" as="geometry" />
        </mxCell>
        <mxCell id="o1OYObT5BuMIY8ksVBpy-35" style="edgeStyle=orthogonalEdgeStyle;rounded=0;orthogonalLoop=1;jettySize=auto;html=1;entryX=0.212;entryY=0;entryDx=0;entryDy=0;entryPerimeter=0;" parent="1" source="o1OYObT5BuMIY8ksVBpy-20" target="o1OYObT5BuMIY8ksVBpy-3" edge="1">
          <mxGeometry relative="1" as="geometry" />
        </mxCell>
        <mxCell id="o1OYObT5BuMIY8ksVBpy-36" style="edgeStyle=orthogonalEdgeStyle;rounded=0;orthogonalLoop=1;jettySize=auto;html=1;entryX=0;entryY=0.513;entryDx=0;entryDy=0;entryPerimeter=0;" parent="1" source="o1OYObT5BuMIY8ksVBpy-15" target="o1OYObT5BuMIY8ksVBpy-3" edge="1">
          <mxGeometry relative="1" as="geometry" />
        </mxCell>
        <mxCell id="o1OYObT5BuMIY8ksVBpy-37" style="edgeStyle=orthogonalEdgeStyle;rounded=0;orthogonalLoop=1;jettySize=auto;html=1;exitX=1;exitY=0.5;exitDx=0;exitDy=0;entryX=0.063;entryY=0.333;entryDx=0;entryDy=0;entryPerimeter=0;" parent="1" target="o1OYObT5BuMIY8ksVBpy-31" edge="1" source="o1OYObT5BuMIY8ksVBpy-6">
          <mxGeometry relative="1" as="geometry">
            <mxPoint x="-522.5" y="1630" as="sourcePoint" />
          </mxGeometry>
        </mxCell>
        <mxCell id="o1OYObT5BuMIY8ksVBpy-38" style="edgeStyle=orthogonalEdgeStyle;rounded=0;orthogonalLoop=1;jettySize=auto;html=1;exitX=1;exitY=1;exitDx=0;exitDy=0;entryX=-0.009;entryY=0.71;entryDx=0;entryDy=0;entryPerimeter=0;" parent="1" source="o1OYObT5BuMIY8ksVBpy-3" target="o1OYObT5BuMIY8ksVBpy-30" edge="1">
          <mxGeometry relative="1" as="geometry">
            <Array as="points">
              <mxPoint x="-480" y="1910" />
              <mxPoint x="-410" y="1910" />
            </Array>
          </mxGeometry>
        </mxCell>
        <mxCell id="o1OYObT5BuMIY8ksVBpy-39" style="edgeStyle=orthogonalEdgeStyle;rounded=0;orthogonalLoop=1;jettySize=auto;html=1;exitX=1;exitY=0.5;exitDx=0;exitDy=0;entryX=0.028;entryY=0.486;entryDx=0;entryDy=0;entryPerimeter=0;" parent="1" source="o1OYObT5BuMIY8ksVBpy-7" target="o1OYObT5BuMIY8ksVBpy-29" edge="1">
          <mxGeometry relative="1" as="geometry" />
        </mxCell>
        <mxCell id="JW7BccXnfLLCZpJVobOL-7" style="edgeStyle=orthogonalEdgeStyle;rounded=0;orthogonalLoop=1;jettySize=auto;html=1;" edge="1" parent="1" source="o1OYObT5BuMIY8ksVBpy-41" target="o1OYObT5BuMIY8ksVBpy-33">
          <mxGeometry relative="1" as="geometry" />
        </mxCell>
        <mxCell id="o1OYObT5BuMIY8ksVBpy-41" value="F1 Coefficient Register (0x8)" style="rounded=0;whiteSpace=wrap;html=1;" parent="1" vertex="1">
          <mxGeometry x="-863" y="1590" width="340" height="60" as="geometry" />
        </mxCell>
        <mxCell id="JW7BccXnfLLCZpJVobOL-8" style="edgeStyle=orthogonalEdgeStyle;rounded=0;orthogonalLoop=1;jettySize=auto;html=1;" edge="1" parent="1" source="o1OYObT5BuMIY8ksVBpy-42" target="o1OYObT5BuMIY8ksVBpy-33">
          <mxGeometry relative="1" as="geometry">
            <mxPoint x="-340" y="1640" as="targetPoint" />
            <Array as="points">
              <mxPoint x="-330" y="1706" />
            </Array>
          </mxGeometry>
        </mxCell>
        <mxCell id="o1OYObT5BuMIY8ksVBpy-42" value="F2 Coefficient Register (0xA)" style="rounded=0;whiteSpace=wrap;html=1;" parent="1" vertex="1">
          <mxGeometry x="-863" y="1675.5" width="340" height="60" as="geometry" />
        </mxCell>
        <mxCell id="o1OYObT5BuMIY8ksVBpy-43" value="F3 Coefficient Register (0xC)" style="rounded=0;whiteSpace=wrap;html=1;" parent="1" vertex="1">
          <mxGeometry x="-862.5" y="1760" width="340" height="60" as="geometry" />
        </mxCell>
        <mxCell id="JW7BccXnfLLCZpJVobOL-14" style="edgeStyle=orthogonalEdgeStyle;rounded=0;orthogonalLoop=1;jettySize=auto;html=1;" edge="1" parent="1" source="o1OYObT5BuMIY8ksVBpy-44" target="JW7BccXnfLLCZpJVobOL-15">
          <mxGeometry relative="1" as="geometry">
            <mxPoint x="-390" y="1866.5" as="targetPoint" />
          </mxGeometry>
        </mxCell>
        <mxCell id="o1OYObT5BuMIY8ksVBpy-44" value="New Coefficient Set Confirmation Register (0xE)" style="rounded=0;whiteSpace=wrap;html=1;" parent="1" vertex="1">
          <mxGeometry x="-862.5" y="1836.5" width="340" height="60" as="geometry" />
        </mxCell>
        <mxCell id="JW7BccXnfLLCZpJVobOL-1" value="hsize" style="text;html=1;align=center;verticalAlign=middle;resizable=0;points=[];autosize=1;strokeColor=none;fillColor=none;" vertex="1" parent="1">
          <mxGeometry x="-905" y="1060" width="50" height="30" as="geometry" />
        </mxCell>
        <mxCell id="JW7BccXnfLLCZpJVobOL-2" style="edgeStyle=orthogonalEdgeStyle;rounded=0;orthogonalLoop=1;jettySize=auto;html=1;entryX=0.059;entryY=0;entryDx=0;entryDy=0;entryPerimeter=0;" edge="1" parent="1" source="JW7BccXnfLLCZpJVobOL-1" target="o1OYObT5BuMIY8ksVBpy-3">
          <mxGeometry relative="1" as="geometry" />
        </mxCell>
        <mxCell id="JW7BccXnfLLCZpJVobOL-3" value="htrans[1:0]" style="text;html=1;align=center;verticalAlign=middle;resizable=0;points=[];autosize=1;strokeColor=none;fillColor=none;" vertex="1" parent="1">
          <mxGeometry x="-1070" y="1090" width="80" height="30" as="geometry" />
        </mxCell>
        <mxCell id="JW7BccXnfLLCZpJVobOL-4" style="edgeStyle=orthogonalEdgeStyle;rounded=0;orthogonalLoop=1;jettySize=auto;html=1;entryX=0;entryY=0.045;entryDx=0;entryDy=0;entryPerimeter=0;" edge="1" parent="1" source="JW7BccXnfLLCZpJVobOL-3" target="o1OYObT5BuMIY8ksVBpy-3">
          <mxGeometry relative="1" as="geometry" />
        </mxCell>
        <mxCell id="JW7BccXnfLLCZpJVobOL-5" value="modwait" style="text;html=1;align=center;verticalAlign=middle;resizable=0;points=[];autosize=1;strokeColor=none;fillColor=none;" vertex="1" parent="1">
          <mxGeometry x="-508" y="1060" width="70" height="30" as="geometry" />
        </mxCell>
        <mxCell id="JW7BccXnfLLCZpJVobOL-6" style="edgeStyle=orthogonalEdgeStyle;rounded=0;orthogonalLoop=1;jettySize=auto;html=1;entryX=0.953;entryY=0.001;entryDx=0;entryDy=0;entryPerimeter=0;" edge="1" parent="1" source="JW7BccXnfLLCZpJVobOL-5" target="o1OYObT5BuMIY8ksVBpy-3">
          <mxGeometry relative="1" as="geometry" />
        </mxCell>
        <mxCell id="JW7BccXnfLLCZpJVobOL-9" style="edgeStyle=orthogonalEdgeStyle;rounded=0;orthogonalLoop=1;jettySize=auto;html=1;entryX=0.731;entryY=1.033;entryDx=0;entryDy=0;entryPerimeter=0;" edge="1" parent="1" source="o1OYObT5BuMIY8ksVBpy-43" target="o1OYObT5BuMIY8ksVBpy-33">
          <mxGeometry relative="1" as="geometry" />
        </mxCell>
        <mxCell id="JW7BccXnfLLCZpJVobOL-10" value="fir_out[15:0]" style="text;html=1;align=center;verticalAlign=middle;resizable=0;points=[];autosize=1;strokeColor=none;fillColor=none;" vertex="1" parent="1">
          <mxGeometry x="-1125" y="1330" width="90" height="30" as="geometry" />
        </mxCell>
        <mxCell id="JW7BccXnfLLCZpJVobOL-11" value="coefficient_num[1:0]" style="text;html=1;align=center;verticalAlign=middle;resizable=0;points=[];autosize=1;strokeColor=none;fillColor=none;" vertex="1" parent="1">
          <mxGeometry x="-1130" y="1705.5" width="130" height="30" as="geometry" />
        </mxCell>
        <mxCell id="JW7BccXnfLLCZpJVobOL-13" style="edgeStyle=orthogonalEdgeStyle;rounded=0;orthogonalLoop=1;jettySize=auto;html=1;entryX=0;entryY=0.5;entryDx=0;entryDy=0;" edge="1" parent="1" source="JW7BccXnfLLCZpJVobOL-12" target="o1OYObT5BuMIY8ksVBpy-44">
          <mxGeometry relative="1" as="geometry" />
        </mxCell>
        <mxCell id="JW7BccXnfLLCZpJVobOL-12" value="clear_coefficient" style="text;html=1;align=center;verticalAlign=middle;resizable=0;points=[];autosize=1;strokeColor=none;fillColor=none;" vertex="1" parent="1">
          <mxGeometry x="-1135" y="1889" width="110" height="30" as="geometry" />
        </mxCell>
        <mxCell id="JW7BccXnfLLCZpJVobOL-15" value="new_coefficient_set" style="text;html=1;align=center;verticalAlign=middle;resizable=0;points=[];autosize=1;strokeColor=none;fillColor=none;" vertex="1" parent="1">
          <mxGeometry x="-380" y="1851.5" width="130" height="30" as="geometry" />
        </mxCell>
      </root>
    </mxGraphModel>
  </diagram>
</mxfile>
